<?xml version="1.0" encoding="UTF-8" standalone="no"?><!DOCTYPE svg PUBLIC "-//W3C//DTD SVG 1.1//EN" "http://www.w3.org/Graphics/SVG/1.1/DTD/svg11.dtd"><!-- Generated by graphviz version 2.40.1 (20161225.0304)
 --><!-- Title: G Pages: 1 --><svg xmlns="http://www.w3.org/2000/svg" xmlns:xlink="http://www.w3.org/1999/xlink" width="133pt" height="188pt" viewBox="0.00 0.00 132.79 188.00">
<g id="graph0" class="graph" transform="scale(1 1) rotate(0) translate(4 184)">
<title>G</title>
<polygon fill="#ffffff" stroke="transparent" points="-4,4 -4,-184 128.7915,-184 128.7915,4 -4,4"/>
<!-- start -->
<g id="node1" class="node">
<title>start</title>
<ellipse fill="none" stroke="#000000" cx="53.3957" cy="-162" rx="27.8228" ry="18"/>
<text text-anchor="middle" x="53.3957" y="-157.8" font-family="Times,serif" font-size="14.00" fill="#000000">start</text>
</g>
<!-- read_name -->
<g id="node2" class="node">
<title>read_name</title>
<ellipse fill="none" stroke="#000000" cx="53.3957" cy="-90" rx="53.2917" ry="18"/>
<text text-anchor="middle" x="53.3957" y="-85.8" font-family="Times,serif" font-size="14.00" fill="#000000">read_name</text>
</g>
<!-- start&#45;&gt;read_name -->
<g id="edge1" class="edge">
<title>start-&gt;read_name</title>
<path fill="none" stroke="#000000" d="M53.3957,-143.8314C53.3957,-136.131 53.3957,-126.9743 53.3957,-118.4166"/>
<polygon fill="#000000" stroke="#000000" points="56.8958,-118.4132 53.3957,-108.4133 49.8958,-118.4133 56.8958,-118.4132"/>
</g>
<!-- read_name&#45;&gt;read_name -->
<g id="edge2" class="edge">
<title>read_name-&gt;read_name</title>
<path fill="none" stroke="#000000" d="M90.1303,-103.1012C108.4503,-104.9139 124.7915,-100.5469 124.7915,-90 124.7915,-81.4307 114.0037,-76.941 100.1319,-76.5309"/>
<polygon fill="#000000" stroke="#000000" points="99.9948,-73.0335 90.1303,-76.8988 100.2522,-80.0288 99.9948,-73.0335"/>
</g>
<!-- end_state -->
<g id="node3" class="node">
<title>end_state</title>
<ellipse fill="none" stroke="#000000" cx="53.3957" cy="-18" rx="47.51" ry="18"/>
<text text-anchor="middle" x="53.3957" y="-13.8" font-family="Times,serif" font-size="14.00" fill="#000000">end_state</text>
</g>
<!-- read_name&#45;&gt;end_state -->
<g id="edge3" class="edge">
<title>read_name-&gt;end_state</title>
<path fill="none" stroke="#000000" d="M53.3957,-71.8314C53.3957,-64.131 53.3957,-54.9743 53.3957,-46.4166"/>
<polygon fill="#000000" stroke="#000000" points="56.8958,-46.4132 53.3957,-36.4133 49.8958,-46.4133 56.8958,-46.4132"/>
</g>
</g>
</svg>